# xmcd CD database file
#
# Track frame offsets:
#	150
#	50220
#	87495
#	113365
#	131225
#
# Disc length: 2169 seconds
#
# Revision: 1
# Processed by: cddbd v1.5.1PL2 Copyright (c) Steve Scherf et al.
# Submitted via: CDex 1.50
#
DISCID=42087705
DTITLE=Freddie Hubbard - First Light
DYEAR=1971
DGENRE=Jazz
TTITLE0=First Light
TTITLE1=Uncle Albert - Admiral Halsey
TTITLE2=Moment to Moment
TTITLE3=Yesterday's Dreams
TTITLE4=Lonely Town - from "on the town"
EXTD=YEAR: 1971
EXTT0=
EXTT1=
EXTT2=
EXTT3=
EXTT4=
PLAYORDER=
